<svg xmlns="http://www.w3.org/2000/svg" x="0" y="0" enable-background="new 0 0 489.642 489.642" version="1.1" viewBox="0 0 489.642 489.642" xml:space="preserve"><path fill="#AD7136" d="M475.322 0c-.91 35.8-15.06 69.6-39.12 95.16l-10.23-11.05-11.82-12.76c11.03-20.21 13.19-48.09 13.32-71.35h47.85z"/><path fill="#8C531F" d="M449.602 0c-1.62 27.39-7.01 61.45-23.63 84.11l-11.82-12.76c11.03-20.21 13.19-48.09 13.32-71.35h22.13z"/><path fill="#70D65B" d="M64.713 166.711c-75.259 75.259-62.329 184.347 12.93 259.606s184.347 88.189 259.606 12.93 162.135-284.154 86.876-359.413-284.153 11.618-359.412 86.877z"/><path fill="#58B741" d="M311.982 382.749c-16.842 16.842-37.016 28.299-58.41 34.36-45.528 12.942-96.525 1.485-132.37-34.36-52.675-52.675-52.675-138.093 0-190.78 35.845-35.845 86.842-47.29 132.37-34.36 21.394 6.073 41.568 17.518 58.41 34.36 52.687 52.688 52.687 138.105 0 190.78z"/><path fill="#8C531F" d="M295.602 366.37c-13.95 13.95-30.66 23.44-48.38 28.46-37.71 10.72-79.95 1.23-109.64-28.46-43.63-43.63-43.63-114.38 0-158.02 29.69-29.69 71.93-39.17 109.64-28.46 17.72 5.03 34.43 14.51 48.38 28.46 43.64 43.64 43.64 114.39 0 158.02z"/><path fill="#AD7136" d="M295.602 366.37c-13.95 13.95-30.66 23.44-48.38 28.46-17.72-5.02-34.44-14.51-48.39-28.46-43.63-43.63-43.63-114.38 0-158.02 13.95-13.95 30.67-23.44 48.39-28.46 17.72 5.03 34.43 14.51 48.38 28.46 43.64 43.64 43.64 114.39 0 158.02z"/><g fill="#8C531F"><path d="M273.774 284.76c-2.943 0-5.658-1.778-6.847-4.462-1.374-3.101-.45-6.859 2.237-8.943 5.418-4.2 13.466.799 11.927 7.554-.769 3.38-3.846 5.851-7.317 5.851zM293.534 266.31c-2.94 0-5.662-1.785-6.847-4.47-1.347-3.053-.485-6.746 2.118-8.851 4.992-4.037 12.7-.06 12.205 6.372-.296 3.861-3.591 6.949-7.476 6.949zM299.844 289.98c-6.702 0-10.043-8.566-5.042-13.061 2.452-2.204 6.134-2.552 8.953-.836 2.622 1.596 4.034 4.769 3.454 7.783-.671 3.487-3.798 6.114-7.365 6.114z"/></g></svg>