<svg xmlns="http://www.w3.org/2000/svg" x="0" y="0" enable-background="new 0 0 490.003 490.003" version="1.1" viewBox="0 0 490.003 490.003" xml:space="preserve"><path fill="#4AA032" d="M140.493 270.981a7.5 7.5 0 0 1-7.487-7.17c-.1-2.278-2.164-56.486 23.19-116.346 14.959-35.317 36.4-65.175 63.729-88.744C254.019 29.317 297.307 9.768 348.587.619a7.5 7.5 0 1 1 2.635 14.767c-48.595 8.671-89.473 27.073-121.5 54.695-25.569 22.052-45.66 50.057-59.713 83.236-24.046 56.769-22.04 109.312-22.017 109.836a7.501 7.501 0 0 1-7.499 7.828z"/><path fill="#4AA032" d="M335.212 270.983a7.501 7.501 0 0 1-7.021-10.139c8.164-21.734-3.016-55.238-14.852-90.709-10.589-31.733-21.539-64.547-20.622-94.262 1.093-35.41 18.847-59.872 54.277-74.784a7.5 7.5 0 1 1 5.818 13.825c-29.866 12.571-44.197 32.088-45.103 61.422-.834 27.042 9.685 58.566 19.857 89.052 12.702 38.065 24.699 74.02 14.666 100.731a7.5 7.5 0 0 1-7.02 4.864z"/><path fill="#70D65B" d="M473.134 241.2c-42.48-2.71-101.56-63.28-124.82-108.8-17.29-33.84-20.54-70.62-11.73-102.07.27-1.02.56-2.03.87-3.03 2.68-8.7 6.29-16.96 10.8-24.59.54-.91 1.09-1.82 1.65-2.71 42.48 2.72 84.95 30.78 108.21 76.3 12.93 25.33 23.15 62.36 25.76 96.44 2.08 27.19-.68 52.48-10.74 68.46z"/><path fill="#58B741" d="M473.134 241.2c-42.48-2.71-101.56-63.28-124.82-108.8-17.29-33.84-20.54-70.62-11.73-102.07.27-1.02.56-2.03.87-3.03 2.68-8.7 6.29-16.96 10.8-24.59 43.82 65.12 116.98 212.83 124.88 238.49z"/><path fill="#FF3B6A" d="M140.499 490.001c74.568 0 135.018-60.449 135.018-135.018s-60.449-141.677-135.018-99.503C65.931 213.307 5.481 280.415 5.481 354.983s60.45 135.018 135.018 135.018z"/><path fill="#E21E56" d="M140.501 490.003c-74.57 0-135.02-60.45-135.02-135.02 0-64.17 44.77-122.82 104.79-111.04-22.09 9.14-37.24 58.22-37.24 111.04 0 74.57 30.2 135.02 67.47 135.02z"/><path fill="#FF3B6A" d="M335.213 490.001c74.568 0 135.018-60.449 135.018-135.018s-60.449-141.677-135.018-99.503c-74.568-42.174-135.018 24.935-135.018 99.503s60.45 135.018 135.018 135.018z"/><path fill="#E21E56" d="M335.215 490.003c-74.57 0-135.02-60.45-135.02-135.02 0-64.17 44.77-122.82 104.79-111.04-22.09 9.14-37.24 58.22-37.24 111.04 0 74.57 30.2 135.02 67.47 135.02z"/></svg>