<svg xmlns="http://www.w3.org/2000/svg" x="0" y="0" enable-background="new 0 0 490 490" version="1.1" viewBox="0 0 490 490" xml:space="preserve"><path fill="#58B741" d="M279.566 34.559v37.718h-69.129V34.559C210.438 15.479 225.917 0 244.996 0h.011c4.272 0 8.356.771 12.132 2.202 13.102 4.91 22.427 17.549 22.427 32.357z"/><path fill="#70D65B" d="M279.566 34.559v37.718h-44.853V34.559c0-9.545 3.875-18.177 10.129-24.43a34.486 34.486 0 0 1 12.297-7.927c13.102 4.91 22.427 17.549 22.427 32.357z"/><path fill="#E6E6E6" d="M485.805 361.379c0 121.47-72.11 121.15-165.51 115.95-23.98-1.33-49.36-2.99-75.29-2.99h-.48c-9.95.01-19.82.26-29.55.64-114.31 4.47-210.78 26.9-210.78-113.6 0-80.05 102.64-261.22 221.62-279.39 6.2-.95 12.44-1.46 18.71-1.48h.48c30.86 0 60.95 11.62 88.82 30.43 86.74 58.51 151.98 186.61 151.98 250.44z"/><path fill="#CCC" d="M166.807 477.492c-91.995 5.031-162.61 4.095-162.61-116.117 0-62.501 62.578-186.655 146.646-246.733-36.177 64.791-60.31 167.641-60.31 222.689 0 62.776 31.399 116.711 76.274 140.161z"/><path fill="#CCC" d="M396.255 337.329c0 62.64-31.25 116.46-75.96 140-23.98-1.33-49.36-2.99-75.29-2.99h-.48c-9.95.01-19.82.26-29.55.64-42.42-24.65-71.7-77.02-71.7-137.65 0-65.66 34.35-199.39 82.54-255.34 6.2-.95 12.44-1.46 18.71-1.48h.48c30.86 0 60.95 11.62 88.82 30.43 37.36 64.52 62.43 170.3 62.43 226.39z"/><path fill="#E6E6E6" d="M371.497 337.331c0-84.317-56.633-280.857-126.493-280.857s-126.493 196.54-126.493 280.857S175.144 490 245.005 490s126.492-68.352 126.492-152.669z"/><path fill="#CCC" d="M244.163 489.988c-69.47-.528-125.651-68.677-125.651-152.657 0-84.322 56.633-280.852 126.488-280.852-35.902 0-65 196.53-65 280.852-.001 83.661 28.646 151.6 64.163 152.657z"/></svg>