<svg xmlns="http://www.w3.org/2000/svg" x="0" y="0" enable-background="new 0 0 486.725 486.725" version="1.1" viewBox="0 0 486.725 486.725" xml:space="preserve"><path fill="#58B741" d="m382.925 130.83-54.197 30.315 34.669-45.245c24.96-31.643 39.408-74.286 47.184-115.9l45.491 7.216a255.918 255.918 0 0 1-73.147 123.614z"/><path fill="#FF3B6A" d="M441.241 273.839c-11.81 30.71-32.22 67.01-64.56 109.98-157.21 208.91-367.69 35.08-367.69 35.08 83.56-3.1 175.55-98.26 197.41-185.83 6.21-24.85 17.63-49.9 32.9-71.56 28.36-40.27 70-68.86 116-62.78 16.46 2.17 33.48 8.78 50.65 20.89 29.109 20.51 70.639 62.35 35.29 154.22z"/><path fill="#E21E56" d="M8.989 418.903c83.563-3.103 175.553-98.262 197.412-185.833 17.733-71.031 78.146-143.686 148.898-134.345-1.67 24.211-9.662 53.74-26.079 89.707C216.191 435.96 85.271 444.989 8.989 418.903z"/><path fill="#E21E56" d="M441.241 273.839c-29.05-19.5-40.37-50.39-40.37-50.39-22.76 20.49-78.14 21.31-78.14 21.31-9.81-10.57-15.8-23.06-19.39-35.22-7.83-26.43-4.35-51.26-4.35-51.26-13.9 10.23-44.32 6.16-59.69 3.23 28.36-40.27 70-68.86 116-62.78 16.46 2.17 33.48 8.78 50.65 20.89 29.109 20.51 70.639 62.35 35.29 154.22z"/><path fill="#70D65B" d="M466.457 255.278c-39.086-17.596-53.86-57.896-53.86-57.896-22.758 20.498-78.138 21.317-78.138 21.317-9.806-10.57-15.797-23.064-19.388-35.218-7.828-26.432-4.353-51.269-4.353-51.269-19.008 14.003-68.96 1.226-68.96 1.226C261.014 58.98 359.654 41.575 414.02 79.895c99.929 63.235 52.437 175.383 52.437 175.383z"/><path fill="#58B741" d="M315.071 183.48c-7.828-26.432-4.353-51.269-4.353-51.269-20.722 11.253-68.96 1.226-68.96 1.226C261.014 58.98 359.654 41.575 414.02 79.895c-34.572-2.485-75.473 54.025-98.949 103.585z"/></svg>