<svg xmlns="http://www.w3.org/2000/svg" x="0" y="0" enable-background="new 0 0 488.43 488.43" version="1.1" viewBox="0 0 488.43 488.43" xml:space="preserve"><path fill="#58B741" d="M351.35 62.966c-3.35 0-6.4-2.26-7.264-5.655-.608-2.398-1.774-4.95-3.376-7.568-9.853 6.96-22.328 10.905-34.728 10.905-10.496 0-20.148-2.909-27.178-8.19-8.343-6.268-12.753-15.346-12.753-26.253 0-21.249 13.737-25.261 19.643-25.999 15.986-1.994 39.849 10.828 56.075 27.112 3.185-5.141 5.078-11.324 5.078-18.497 0-4.142 3.357-7.5 7.5-7.5s7.5 3.358 7.5 7.5c0 11.385-3.528 21.851-10.108 30.399 3.286 4.821 5.692 9.701 6.886 14.397a7.5 7.5 0 0 1-7.275 9.349zm-61.861-47.992c-.669 0-1.313.038-1.933.115-2.111.264-6.504.813-6.504 11.115 0 6.091 2.275 10.889 6.763 14.261 4.448 3.342 10.9 5.183 18.168 5.183 8.836 0 17.917-2.566 25.27-7.533-12.336-12.307-30.434-23.141-41.764-23.141z"/><path fill="#4AA032" d="M225.651 245.787c54.646-54.646 94.581-118.432 119.807-186.436 7.304-19.691 32.478-25.178 47.339-10.337.671.67 1.34 1.345 2.006 2.025 98.832 100.866 97.486 263.778-2.931 363.067-100.575 99.446-262.724 99.098-362.867-1.046l-.326-.326c-14.739-14.791-9.046-39.876 10.532-47.138 68.005-25.226 131.792-65.162 186.44-119.809z"/><circle cx="379.313" cy="144.171" r="40.768" fill="#70D65B"/><path fill="#58B741" d="M374.445 173.004a40.566 40.566 0 0 0 16.85 10.15c-13.96 4.28-29.76.89-40.81-10.15-15.92-15.92-15.92-41.74 0-57.66 11.05-11.04 26.85-14.43 40.81-10.15a40.566 40.566 0 0 0-16.85 10.15c-15.919 15.92-15.919 41.74 0 57.66z"/><circle cx="363.562" cy="276.818" r="60.898" fill="#70D65B"/><path fill="#58B741" d="M353.08 319.876c7.71 7.71 16.97 12.91 26.77 15.62-20.45 5.66-43.28.45-59.35-15.62-23.79-23.78-23.79-62.34 0-86.12 16.07-16.07 38.9-21.28 59.35-15.62-9.8 2.71-19.06 7.91-26.77 15.62-23.79 23.78-23.79 62.34 0 86.12z"/><circle cx="124.035" cy="399.45" r="40.768" fill="#70D65B"/><path fill="#58B741" d="M119.167 428.277a40.566 40.566 0 0 0 16.85 10.15c-13.96 4.28-29.76.89-40.81-10.15-15.92-15.92-15.92-41.74 0-57.66 11.05-11.04 26.85-14.43 40.81-10.15a40.566 40.566 0 0 0-16.85 10.15c-15.92 15.92-15.92 41.74 0 57.66z"/><circle cx="253.151" cy="387.228" r="60.898" fill="#70D65B"/><path fill="#58B741" d="M242.67 430.287c7.71 7.71 16.97 12.91 26.77 15.62-20.45 5.66-43.28.45-59.35-15.62-23.79-23.78-23.79-62.34 0-86.12 16.07-16.07 38.9-21.28 59.35-15.62-9.8 2.71-19.06 7.91-26.77 15.62-23.79 23.78-23.79 62.34 0 86.12z"/></svg>