<svg xmlns="http://www.w3.org/2000/svg" x="0" y="0" enable-background="new 0 0 512 512" version="1.1" viewBox="0 0 512 512" xml:space="preserve"><path fill="#936642" d="M328.34 291.819a36.328 36.328 0 0 1-2.543-36.131 43.916 43.916 0 0 0-3.427-37.614l5.554-5.554c7.405-7.406 7.405-19.412 0-26.818a18.963 18.963 0 0 1-5.554-13.409v-4.305a38.6 38.6 0 0 0 26.074-25.767 48.232 48.232 0 0 0-8.823-48.51 126.146 126.146 0 0 0-64.659-34.448V35.296c11.289-3.285 18.963-9.332 18.963-16.333C293.926 8.49 276.946 0 256 0s-37.926 8.49-37.926 18.963c0 7.001 7.674 13.048 18.963 16.333v23.969a126.15 126.15 0 0 0-64.659 34.448 48.232 48.232 0 0 0-8.823 48.509 38.603 38.603 0 0 0 26.074 25.767v4.305c0 5.029-1.998 9.853-5.554 13.409-7.405 7.406-7.405 19.412 0 26.818l5.554 5.554a43.916 43.916 0 0 0-3.427 37.614 36.329 36.329 0 0 1-2.543 36.131c-16.153 31.605-35.116 84.28-3.512 115.885 0 0-28.444 18.963-9.481 37.926v37.926s18.963 28.444 85.333 28.444 85.333-28.444 85.333-28.444V445.63c18.963-18.963-9.481-37.926-9.481-37.926 31.606-31.606 12.643-84.28-3.511-115.885z"/><g fill="#603E26"><path d="M327.925 185.702a18.963 18.963 0 0 1-5.554-13.409v-4.441H189.63v4.441c0 5.029-1.998 9.853-5.554 13.409-7.405 7.406-7.405 19.412 0 26.818l5.554 5.554h132.74l5.554-5.554c7.406-7.406 7.406-19.412.001-26.818zM256 256h-18.963a9.477 9.477 0 0 0-9.481 9.481v75.852a9.481 9.481 0 0 0 18.962 0v-28.444H256c15.709 0 28.444-12.735 28.444-28.444 0-15.71-12.735-28.445-28.444-28.445zm0 37.926h-9.481v-18.963H256c5.236 0 9.481 4.245 9.481 9.482a9.481 9.481 0 0 1-9.481 9.481z"/><path d="M237.037 35.233H274.963V59.382H237.037z"/><path d="M341.333 445.63c18.963-18.963-9.481-37.926-9.481-37.926H180.148s-28.444 18.963-9.481 37.926a221.538 221.538 0 0 0 170.666 0z"/></g></svg>