<svg xmlns="http://www.w3.org/2000/svg" x="0" y="0" enable-background="new 0 0 490.621 490.621" version="1.1" viewBox="0 0 490.621 490.621" xml:space="preserve"><path fill="#AD7136" d="M282.492 66.73a89.27 89.27 0 0 1 28.31-39.41c-7.26-9.11-14.52-18.22-21.78-27.32a124.302 124.302 0 0 0-43.24 67.52l16.857 23.051 19.853-23.841z"/><path fill="#654B87" d="M311.131 63.204c-16.92 0-33.213 3.626-48.492 10.311-15.279-6.685-31.571-10.311-48.492-10.311-87.092 0-157.693 95.681-157.693 213.708S127.056 490.62 214.147 490.62c16.92 0 33.213-3.626 48.492-10.311 15.279 6.685 31.571 10.311 48.492 10.311 87.092 0 157.693-95.68 157.693-213.708S398.223 63.204 311.131 63.204z"/><path fill="#463068" d="M230.651 489.46c-5.42.77-10.93 1.16-16.5 1.16-87.09 0-157.7-95.68-157.7-213.71s70.61-213.71 157.7-213.71c5.57 0 11.08.39 16.5 1.16-38.99 11.22-69.4 102.1-69.4 212.55s30.41 201.33 69.4 212.55z"/><path fill="#70D65B" d="M207.331 219.94c-41.08 41.08-97.42 57.61-150.78 49.59-9-1.34-17.91-3.39-26.65-6.13-19.03-60.58-4.55-129.42 43.46-177.43 48.01-48.01 116.84-62.49 177.42-43.45.56 1.79 1.1 3.59 1.59 5.4 16.56 59.24 1.55 125.43-45.04 172.02z"/><path fill="#58B741" d="M252.371 47.92c-86.2 33.58-184.86 165.8-195.82 221.61-9-1.34-17.91-3.39-26.65-6.13-19.03-60.58-4.55-129.42 43.46-177.43 48.01-48.01 116.84-62.49 177.42-43.45.56 1.79 1.1 3.59 1.59 5.4z"/><path fill="#4AA032" d="M84.616 216.179a7.5 7.5 0 0 1-6.431-11.348c30.225-50.593 74.433-93.737 106.197-121.021 34.349-29.505 61.215-46.874 62.342-47.599a7.5 7.5 0 0 1 8.116 12.614c-1.072.69-107.871 70.116-163.779 163.699a7.493 7.493 0 0 1-6.445 3.655z"/><path fill="#4AA032" d="M188.715 152.153a7.5 7.5 0 0 1-7.391-8.824l9.751-54.448-51.031 5.881a7.499 7.499 0 0 1-8.309-6.592 7.5 7.5 0 0 1 6.592-8.309l61.05-7.036a7.503 7.503 0 0 1 8.241 8.773l-11.529 64.375a7.502 7.502 0 0 1-7.374 6.18zM140.809 182.125a7.5 7.5 0 0 1-7.5-7.5v-30.734l-32.525 3.017a7.5 7.5 0 1 1-1.386-14.936l40.718-3.777a7.499 7.499 0 0 1 8.193 7.468v38.962a7.5 7.5 0 0 1-7.5 7.5z"/></svg>