<svg xmlns="http://www.w3.org/2000/svg" x="0" y="0" enable-background="new 0 0 499.085 499.085" version="1.1" viewBox="0 0 499.085 499.085" xml:space="preserve"><path fill="#AD7136" d="m260.051 130.223-25.758 50.935 2.179-51.801c2.084-36.602-10.163-75.874-27.077-110.885L249.08 0c16.796 41.739 20.453 86.963 10.971 130.223z"/><path fill="#FF3B6A" d="M425.792 319.725a53.123 53.123 0 0 1 3.18 18.18c0 28.4-22.25 51.59-50.27 53.11 1.33 4.66 2.06 9.57 2.06 14.65 0 29.38-23.82 53.2-53.2 53.2-6.02 0-11.8-1.01-17.19-2.86-8.83 25.09-32.72 43.08-60.83 43.08-28.1 0-51.99-17.99-60.82-43.08a52.846 52.846 0 0 1-17.19 2.86c-29.38 0-53.2-23.82-53.2-53.2 0-5.08.73-9.99 2.06-14.65-28.02-1.52-50.28-24.71-50.28-53.11 0-6.39 1.13-12.51 3.19-18.18-10.66-11.5-17.18-26.89-17.18-43.81 0-23.27 12.33-43.65 30.81-54.99-.74-3.17-1.14-6.47-1.14-9.86 0-23.43 18.48-42.53 41.65-43.54a65.72 65.72 0 0 1 3.22-5.67c11.45-17.97 31.53-29.89 54.41-29.89 10.16 0 19.76 2.35 28.31 6.54 10.32-7 22.76-11.09 36.16-11.09 13.41 0 25.85 4.09 36.17 11.09 8.54-4.19 18.15-6.54 28.31-6.54 20.42 0 38.61 9.5 50.43 24.32a64.86 64.86 0 0 1 7.19 11.24c23.18 1.01 41.66 20.11 41.66 43.54 0 3.39-.4 6.69-1.14 9.86 18.48 11.34 30.81 31.72 30.81 54.99 0 16.92-6.52 32.31-17.18 43.81z"/><path fill="#E21E56" d="M314.022 131.965c-10.16 0-19.77 2.35-28.31 6.54-10.32-7-22.76-11.09-36.17-11.09-5.709 0-11.241.749-16.511 2.142l.031-.022c-.134.035-.264.078-.398.114-.172.047-.341.099-.512.147a64.123 64.123 0 0 0-5.723 1.897c-.244.094-.491.184-.734.281-.495.197-.985.406-1.474.615-.287.123-.575.244-.86.371a67.007 67.007 0 0 0-2.296 1.08c-.439.217-.876.437-1.309.663-.323.168-.642.342-.961.515-.407.221-.814.443-1.215.672-.367.21-.728.428-1.09.645-.346.207-.694.409-1.035.623-.699.437-1.391.884-2.073 1.346-8.55-4.19-18.15-6.54-28.31-6.54h-.01c-25.21 0-47.02 14.47-57.62 35.56-23.18 1.01-41.66 20.11-41.66 43.54 0 3.39.41 6.69 1.14 9.86-18.48 11.34-30.81 31.72-30.81 54.99 0 16.92 6.53 32.31 17.19 43.81-2.07 5.67-3.19 11.79-3.19 18.18 0 28.4 22.25 51.59 50.27 53.11a53.289 53.289 0 0 0-2.06 14.65c0 29.38 23.82 53.2 53.2 53.2 6.02 0 11.8-1.01 17.19-2.86 8.72 24.78 32.14 42.64 59.81 43.07-21.34-.54-38.47-18.01-38.47-39.48 0-5.52 1.13-10.77 3.17-15.54-14.14-4.57-24.37-17.83-24.37-33.49 0-7.87 2.58-15.12 6.94-20.98-23.28-5.67-40.56-26.65-40.56-51.68 0-6.39 1.13-12.51 3.19-18.18-10.66-11.5-17.18-26.89-17.18-43.81 0-12.28 3.434-23.755 9.393-33.521 7.862-12.884 25.394-15.679 36.934-5.952 0 0 19.523-55.238 53.413-40.897 0 0 21.011-38.447 57.71-2.61 22.351 21.826 53.05-16.94 53.05-16.94l12.71-19.71c-11.819-14.819-30.009-24.319-50.43-24.319z"/><path fill="#58B741" d="M249.547 127.412c-24.469-29.366-64.163-44.244-103.965-35.098-39.801 9.146-69.019 39.86-78.214 76.962 24.469 29.366 64.163 44.244 103.965 35.098 39.801-9.147 69.019-39.86 78.214-76.962z"/><path fill="#70D65B" d="M249.547 127.412c24.469-29.366 64.163-44.244 103.965-35.098 39.801 9.146 69.019 39.86 78.214 76.962-24.469 29.366-64.163 44.244-103.965 35.098-39.801-9.147-69.018-39.86-78.214-76.962z"/><path fill="#4AA032" d="M377.803 162.646a7.468 7.468 0 0 1-3.585-.917c-68.488-37.357-122.658-27.072-123.195-26.963-4.06.817-8.015-1.815-8.83-5.876s1.816-8.014 5.877-8.83c2.419-.486 60.105-11.439 133.332 28.5a7.5 7.5 0 0 1-3.599 14.086z"/><path fill="#4AA032" d="M325.686 167.859a7.5 7.5 0 0 1-6.94-4.653l-11.66-28.396a7.499 7.499 0 0 1 2.964-9.21l23.389-14.609a7.5 7.5 0 1 1 7.947 12.722l-18.02 11.255 9.255 22.539a7.5 7.5 0 0 1-4.089 9.787 7.452 7.452 0 0 1-2.846.565zM121.291 162.646a7.5 7.5 0 0 1-3.599-14.085c73.228-39.942 130.91-28.988 133.331-28.501a7.5 7.5 0 0 1-2.936 14.71c-.136-.026-13.845-2.64-35.8-.62-20.226 1.863-51.808 8.16-87.411 27.58a7.492 7.492 0 0 1-3.585.916z"/><path fill="#4AA032" d="M173.408 167.859a7.5 7.5 0 0 1-6.935-10.351l9.255-22.539-18.02-11.255a7.5 7.5 0 0 1 7.947-12.722l23.389 14.609a7.499 7.499 0 0 1 2.964 9.21l-11.66 28.396a7.503 7.503 0 0 1-6.94 4.652z"/></svg>