<svg xmlns="http://www.w3.org/2000/svg" viewBox="0 0 497 497"><path fill="#c86d35" fill-rule="evenodd" d="M299.016 233.977 425.625 101.85c7.408-7.743 7.158-20.109-.585-27.517-7.715-7.408-20.108-7.158-27.516.585L236.018 243.474zM254.956 279.987l-63.026 9.497-57.985 60.521c-34.674 36.207-48.181 31.11-82.438 7.603-17.936-12.282-24.703-1.337-15.847 18.438 14.287 32.001 48.766 81.911 99.928 28.52l31.972-33.394z" clip-rule="evenodd"/><path fill="#ac5d2c" fill-rule="evenodd" d="m254.956 279.987-63.026 9.497-15.568 16.265 15.29-2.312c22.42-3.37-7.993 22.03-22.253 36.903l-34.228 35.733-31.972 33.366c-7.492 7.826-14.622 13.424-21.389 17.184 15.011 4.261 33.031-.39 53.779-22.058l31.972-33.394zM299.016 233.977 425.625 101.85c7.408-7.743 7.158-20.109-.585-27.517-7.715-7.408-20.108-7.158-27.516.585l-4.484 4.679c7.353 7.436 7.492 19.524.195 27.127l-87.2 91.018c-8.467 8.857-12.004 14.399-24.063 16.237l-20.665 3.092-25.288 26.403z" clip-rule="evenodd"/><path fill="#d87e49" fill-rule="evenodd" d="m254.956 279.987 225.478-33.979a19.04 19.04 0 0 0 7.659-2.897c6.211-4.038 9.859-11.475 8.689-19.245-.863-5.71-4.178-10.472-8.689-13.424a19.555 19.555 0 0 0-13.48-2.924l-175.598 26.459-62.998 9.497-138.138 20.805c-49.546 7.492-57.121-4.79-69.905-44.311-6.684-20.694-18.716-16.182-23.812 4.874-8.216 34.062-11.447 94.667 61.717 83.637l45.703-6.879 80.349-12.115z" clip-rule="evenodd"/><path fill="#c86d35" fill-rule="evenodd" d="M478.318 226.541a1791652.282 1791652.282 0 0 1-414.555 62.47c-41.442 6.239-58.375-10.5-63.75-32.391-.139 29.996 12.644 59.88 65.867 51.859 138.167-20.805 276.361-41.638 414.555-62.471a19.04 19.04 0 0 0 7.659-2.897c6.211-4.038 9.859-11.475 8.689-19.245a19.419 19.419 0 0 0-3.593-8.634 19.525 19.525 0 0 1-5.097 6.824 18.796 18.796 0 0 1-2.089 1.588 19.012 19.012 0 0 1-7.686 2.897z" clip-rule="evenodd"/><path fill="#ffd772" fill-rule="evenodd" d="M226.24 269.38c-18.04-1.06-42.83-14.76-66.74-56.43-.55-.96-.5-2.05-.04-2.92.45-.84 1.29-1.47 2.36-1.58 37.14-3.6 60.84 3.03 74.87 12.74 3.62 2.11 6.67 4.37 9.2 6.73 23.16 21.47 3.52 50.46-19.65 41.46z" clip-rule="evenodd"/><path fill="#ffd772" fill-rule="evenodd" d="M260.28 298.98c-5.42 17.07-23.9 37.61-67.22 52.6-1.06.37-2.14.1-2.9-.53a2.97 2.97 0 0 1-1.08-2.59c4.38-47.81 21.23-70.61 37.16-79.08 3.66-1.93 7.24-3.12 10.62-3.69.05-.01.09-.01.13-.02 19.08-6.54 31.53 18.02 23.29 33.31z" clip-rule="evenodd"/><path fill="#ffd772" fill-rule="evenodd" d="M331.48 348.46c.09 1.07-.37 2.01-1.11 2.61-.76.62-1.82.87-2.87.51-43.33-14.99-61.8-35.53-67.22-52.6-2.15-6.82-2.23-13.09-1.01-18.21 6.41-9.25 15.79-15.85 24.29-15.1 3.42.56 7.07 1.76 10.75 3.71 15.96 8.47 32.78 31.27 37.17 79.08z" clip-rule="evenodd"/><path fill="#fbba58" fill-rule="evenodd" d="M330.37 351.07c-.76.62-1.82.87-2.87.51-43.33-14.99-61.8-35.53-67.22-52.6-2.15-6.82-2.23-13.09-1.01-18.21h2.01c4.79-.2 9.22-1.7 12.98-4.15zM245.32 275.92l-55.16 75.13a2.97 2.97 0 0 1-1.08-2.59c4.38-47.81 21.23-70.61 37.16-79.08 3.66-1.93 7.24-3.12 10.62-3.69.05-.01.09-.01.13-.02.39.81.78 1.62 1.23 2.4 1.81 3.09 4.23 5.76 7.1 7.85zM248.36 232.78c-1.29.67-2.51 1.48-3.65 2.34-4.12 3.2-7.27 7.66-8.83 12.81l-76.42-37.9c.45-.84 1.29-1.47 2.36-1.58 37.14-3.6 60.84 3.03 74.87 12.74 3.62 2.11 6.67 4.37 9.2 6.73.93 2.06 1.76 3.81 2.47 4.86z" clip-rule="evenodd"/><path fill="#d87e49" d="M235.873 255.491a7.519 7.519 0 0 1-3.464-.845l-17.519-9.052a7.559 7.559 0 1 1 6.94-13.431l17.519 9.052a7.559 7.559 0 0 1-3.476 14.276zM233.145 298.994a7.56 7.56 0 0 1-5.942-12.225l12.171-15.513a7.559 7.559 0 1 1 11.894 9.332L239.097 296.1a7.55 7.55 0 0 1-5.952 2.894zM287.435 298.994a7.544 7.544 0 0 1-5.952-2.894l-12.17-15.513a7.56 7.56 0 1 1 11.894-9.331l12.17 15.513a7.56 7.56 0 0 1-5.942 12.225z"/><g><path fill="#ffd772" fill-rule="evenodd" d="M283.89 221.19c-.31 2.36-1.03 4.58-2.07 6.6-7.63 14.85-32.76 19.38-45.13-6.6-5.53-16.91-2.97-43.91 21.06-81.11.59-.92 1.56-1.37 2.53-1.37.96 0 1.93.45 2.52 1.37 24.03 37.2 26.59 64.2 21.09 81.11z" clip-rule="evenodd"/></g><g><path fill="#fbba58" fill-rule="evenodd" d="M283.89 221.19c-.31 2.36-1.03 4.58-2.07 6.6-4.35 1.5-8.32 3.06-9.62 4.99-3.54-1.89-7.61-2.95-11.92-2.95v-91.12c.96 0 1.93.45 2.52 1.37 24.03 37.2 26.59 64.2 21.09 81.11z" clip-rule="evenodd"/></g><g><path fill="#d87e49" d="M260.275 237.386a7.559 7.559 0 0 1-7.559-7.559v-19.719c0-4.175 3.384-7.559 7.559-7.559s7.559 3.384 7.559 7.559v19.719a7.559 7.559 0 0 1-7.559 7.559z"/></g><g><path fill="#ffd772" fill-rule="evenodd" d="M361.07 212.95c-23.9 41.67-48.72 55.37-66.76 56.43-3.68-1.95-7.33-3.15-10.75-3.71-3.46-2.28-6.56-5.83-8.8-10.14-3.39-6.49-4.81-14.68-2.56-22.75 2.73-4.04 6.57-8.02 11.69-11.59 14-9.71 37.73-16.34 74.87-12.74 1.07.11 1.91.74 2.35 1.58.47.87.51 1.96-.04 2.92z" clip-rule="evenodd"/></g><g><path fill="#fbba58" fill-rule="evenodd" d="M361.07 212.95c-23.9 41.67-48.72 55.37-66.76 56.43-3.68-1.95-7.33-3.15-10.75-3.71-3.46-2.28-6.56-5.83-8.8-10.14 3.18-2.55 10.46-5.77 9.91-7.6l76.44-37.9c.47.87.51 1.96-.04 2.92z" clip-rule="evenodd"/></g><g><path fill="#d87e49" d="M284.679 255.491a7.56 7.56 0 0 1-3.476-14.276l17.519-9.052a7.56 7.56 0 0 1 6.94 13.431l-17.519 9.052a7.531 7.531 0 0 1-3.464.845z"/></g><g><path fill="#fed1a3" fill-rule="evenodd" d="M260.276 229.827c14.065 0 25.483 11.391 25.483 25.484 0 14.065-11.419 25.456-25.483 25.456s-25.483-11.391-25.483-25.456c0-14.093 11.418-25.484 25.483-25.484z" clip-rule="evenodd"/></g></svg>